PathFileType	4	(X/Y/Z)	./resultDataOpenSim/trcMotMarkerGrf/sub10/qtm-04-02.trc
DataRate	CameraRate	NumFrames	NumMarkers	Units	OrigDataRate	OrigDataStartFrame	OrigNumFrames
250.000000	250.000000	7	24	m	250.000000	66	527
Frame#	Time	L.Toe.Tip			R.Toe.Tip			L.Ankle.Lat			R.Ankle.Lat			L.Ankle.Med			R.Ankle.Med			L.Heel			R.Heel			L.Knee.Lat			R.Knee.Lat			L.Knee.Med			R.Knee.Med			L.Thigh.Upper			R.Thigh.Upper			L.ASIS			R.ASIS			V.Sacral			L.Acromium			R.Acromium			C7			L.Elbow			R.Elbow			L.Wrist.Lat			R.Wrist.Lat
		X1	Y1	Z1	X2	Y2	Z2	X3	Y3	Z3	X4	Y4	Z4	X5	Y5	Z5	X6	Y6	Z6	X7	Y7	Z7	X8	Y8	Z8	X9	Y9	Z9	X10	Y10	Z10	X11	Y11	Z11	X12	Y12	Z12	X13	Y13	Z13	X14	Y14	Z14	X15	Y15	Z15	X16	Y16	Z16	X17	Y17	Z17	X18	Y18	Z18	X19	Y19	Z19	X20	Y20	Z20	X21	Y21	Z21	X22	Y22	Z22	X23	Y23	Z23	X24	Y24	Z24

66	0.26	-1.5169841	0.041854654	-0.11140693	-0.77399231	0.043548449	0.025077525	-1.5485343	0.16806374	-0.15924734	-0.9159357	0.05178264	0.057408929	-1.5248284	0.17596362	-0.080559227	-0.89770625	0.082310518	-0.024377072	-1.6021163	0.20896522	-0.11618628	-0.96453086	0.027771181	0.0062388197	-1.2532169	0.41949737	-0.18897904	-0.93989661	0.44941174	0.095346577	-1.2410585	0.38330887	-0.074177772	-0.93455905	0.46226891	-0.031387443	-1.135417	0.78355499	-0.22684713	-1.0580009	0.85384328	0.14878059	-1.050722	0.88817833	-0.18043467	-1.006505	0.93006879	0.05738435	-1.2238423	0.93225521	-0.027149186	-1.0581202	1.3871057	-0.20042407	-1.0994414	1.3801504	0.11247543	-1.1545364	1.4130755	-0.054771352	-1.1155584	1.0398704	-0.27927973	-1.2900851	1.0923749	0.13950133	-0.93797838	0.95343926	-0.12195619	-1.2980206	0.9006728	0.28951005
67	0.264	-1.5141873	0.043396318	-0.11180953	-0.77353447	0.042933048	0.024809063	-1.5409724	0.17065937	-0.15991851	-0.91529378	0.051684959	0.057436212	-1.5173118	0.17784226	-0.081158455	-0.89731471	0.082077383	-0.024478318	-1.5931924	0.2134251	-0.11616194	-0.96434731	0.027926517	0.0062979209	-1.243438	0.4184772	-0.18980348	-0.93648486	0.44951692	0.095748441	-1.2306211	0.38123828	-0.075194464	-0.93161056	0.46174395	-0.031135747	-1.128727	0.78322316	-0.22634315	-1.0526503	0.85472006	0.14925121	-1.0446818	0.88853563	-0.17962414	-1.0007363	0.93097589	0.057717525	-1.2181864	0.93281474	-0.027385974	-1.0532699	1.3879733	-0.19950251	-1.0946819	1.3806951	0.11322848	-1.1498025	1.4134337	-0.054034353	-1.1105421	1.040974	-0.279246	-1.2840887	1.0923833	0.14085264	-0.93271014	0.95452266	-0.12206449	-1.2912703	0.90053807	0.29033619
68	0.268	-1.5113201	0.04500841	-0.11226093	-0.77317021	0.042422577	0.024560039	-1.5329834	0.1733802	-0.16063359	-0.91436665	0.051519221	0.057563081	-1.5097966	0.17972077	-0.081683749	-0.89702783	0.081887268	-0.024569599	-1.5841742	0.21773576	-0.11541552	-0.96419057	0.028046022	0.0063749613	-1.2335032	0.41746484	-0.19061258	-0.93332074	0.44985361	0.096207353	-1.2198521	0.37923178	-0.076285108	-0.92874434	0.46116662	-0.030919456	-1.1220763	0.78290618	-0.22583516	-1.0473791	0.85549598	0.14972673	-1.0386766	0.88888067	-0.17882195	-0.9951848	0.93185558	0.058113204	-1.2128288	0.93341867	-0.027609307	-1.0484505	1.3888151	-0.19863125	-1.0899456	1.3812246	0.11397733	-1.1450932	1.4137775	-0.053315398	-1.1055705	1.0420349	-0.27922949	-1.2780037	1.0923769	0.14250509	-0.92748316	0.95555501	-0.12222158	-1.2844356	0.90036147	0.29118355
69	0.272	-1.508364	0.046643305	-0.11276999	-0.77286661	0.041991009	0.024402963	-1.5245828	0.17622575	-0.16137165	-0.91342077	0.051356243	0.057699885	-1.5024563	0.18152988	-0.082082667	-0.8967982	0.081733077	-0.024646066	-1.5746114	0.22197457	-0.1144939	-0.96405083	0.028149243	0.0064573059	-1.2234739	0.41648613	-0.19140738	-0.92986552	0.45030938	0.096696202	-1.20887	0.37732764	-0.077393631	-0.92586442	0.46058699	-0.03070768	-1.115466	0.78262043	-0.22531572	-1.0422183	0.85617998	0.15019581	-1.032713	0.88923185	-0.17804163	-0.98974009	0.93268439	0.058545808	-1.2077612	0.93408093	-0.027802769	-1.0436622	1.3896303	-0.19781561	-1.0852347	1.3817489	0.11471223	-1.1404035	1.4141323	-0.052611614	-1.100638	1.0430544	-0.27922361	-1.2718672	1.0923406	0.14425277	-0.92227788	0.95652692	-0.12242245	-1.2774923	0.90013886	0.29205117
70	0.276	-1.5052713	0.048295754	-0.11335135	-0.7725909	0.041619821	0.024352896	-1.5158234	0.17917978	-0.16211092	-0.91278561	0.051269042	0.057757206	-1.4952765	0.18321464	-0.082337245	-0.89658943	0.081607373	-0.024708999	-1.5640185	0.2263575	-0.11430942	-0.96392272	0.028243018	0.0065473401	-1.2133949	0.41556185	-0.19217889	-0.9256971	0.45064399	0.09708219	-1.1977389	0.37554529	-0.078472648	-0.92301612	0.46004346	-0.030491499	-1.1088991	0.78238139	-0.22478754	-1.037124	0.85680508	0.15068302	-1.0268084	0.88960182	-0.17729627	-0.98428298	0.93345762	0.058987378	-1.2028318	0.93473392	-0.027946058	-1.0388678	1.3904119	-0.19705006	-1.0805343	1.3822758	0.11542528	-1.1357308	1.4145121	-0.0519285	-1.0957435	1.0440334	-0.27922721	-1.2656665	1.092262	0.14600236	-0.91708242	0.95743336	-0.12267449	-1.2704103	0.89988203	0.29294297
71	0.28	-1.5019693	0.050003894	-0.11404873	-0.77232547	0.041298684	0.024363018	-1.506867	0.18218003	-0.16280977	-0.912618	0.051287871	0.057699919	-1.4877049	0.18478411	-0.08257219	-0.89638945	0.081505313	-0.024763685	-1.5523404	0.23098096	-0.1151825	-0.96380825	0.028320035	0.006635684	-1.2032819	0.41470608	-0.1929138	-0.9210432	0.45070889	0.097252431	-1.1865251	0.37389614	-0.079500716	-0.92025741	0.45957332	-0.030260293	-1.1023738	0.78220467	-0.22425893	-1.0320148	0.85739845	0.15121821	-1.0209775	0.89000018	-0.17659	-0.97873919	0.93416866	0.059421768	-1.1978459	0.93528812	-0.028015487	-1.0340095	1.3911574	-0.19632084	-1.0758204	1.3828031	0.1161168	-1.1310685	1.4149269	-0.051264703	-1.0908914	1.0449751	-0.27924063	-1.2593461	1.0921506	0.1478094	-0.9119117	0.95827778	-0.12298462	-1.2631629	0.89960511	0.29386256
72	0.284	-1.4983613	0.051827689	-0.11492188	-0.77207441	0.041019607	0.024361601	-1.4979633	0.18512281	-0.16338829	-0.91281485	0.051390475	0.057553641	-1.4787563	0.18636044	-0.083073044	-0.89620143	0.081421602	-0.024819284	-1.5400246	0.23562663	-0.11634963	-0.96371313	0.028370909	0.0067019786	-1.1931236	0.41392213	-0.19360862	-0.91649921	0.45060848	0.097272121	-1.1753096	0.3724057	-0.080471428	-0.91760793	0.45920321	-0.030016284	-1.0958932	0.78209824	-0.22372877	-1.0268612	0.85796557	0.15179718	-1.0152193	0.89043407	-0.17591331	-0.97318456	0.9348126	0.059875299	-1.1927091	0.93571024	-0.027995817	-1.0290642	1.3918704	-0.19561992	-1.0710706	1.3833197	0.11678802	-1.1264073	1.4153872	-0.05061302	-1.0860865	1.0458851	-0.27925776	-1.2529169	1.0920256	0.14965761	-0.90677814	0.95906007	-0.12335703	-1.2557986	0.89930357	0.29478269
